<svg xmlns="http://www.w3.org/2000/svg" xmlns:xlink="http://www.w3.org/1999/xlink" width="250" height="66" viewBox="0 0 250 66" xml:space="preserve"><defs><path id="a" d="m13.82 59.479 2.664 1.764c12.61-9.164 33.833-19.914 33.833-19.914l13.231-13.307C16.839 45.822 13.82 59.479 13.82 59.479"/></defs><clipPath id="b"><use xlink:href="#a" overflow="visible"/></clipPath><linearGradient id="c" gradientUnits="userSpaceOnUse" x1="-373.526" y1="533.461" x2="-373.348" y2="533.461" gradientTransform="matrix(280 0 0 -280 104601 149413.75)"><stop offset="0" style="stop-color:#838382"/><stop offset=".5" style="stop-color:#bbbbb9"/><stop offset="1" style="stop-color:#848382"/></linearGradient><path clip-path="url(#b)" fill="url(#c)" d="M13.82 28.021h49.729v33.221H13.82z"/><defs><path id="d" d="M24.654 66c18.648-8.723 38.895-26.523 38.895-26.523 2.397-9.429 0-11.455 0-11.455C57.155 35.07 24.654 66 24.654 66"/></defs><clipPath id="e"><use xlink:href="#d" overflow="visible"/></clipPath><linearGradient id="f" gradientUnits="userSpaceOnUse" x1="-373.51" y1="533.502" x2="-373.333" y2="533.502" gradientTransform="matrix(225 0 0 -225 84064.5 120084.625)"><stop offset="0" style="stop-color:#7a1318"/><stop offset=".5" style="stop-color:#be2528"/><stop offset="1" style="stop-color:#7a1218"/></linearGradient><path clip-path="url(#e)" fill="url(#f)" d="M24.654 28.021h41.292V66H24.654z"/><defs><path id="g" d="M.056 28.814C-.566 41.062 4.23 47.935 4.23 47.935-.744 31.458 45.789 0 45.789 0 6.361 9.957.056 28.814.056 28.814"/></defs><clipPath id="h"><use xlink:href="#g" overflow="visible"/></clipPath><linearGradient id="i" gradientUnits="userSpaceOnUse" x1="-373.194" y1="533.082" x2="-373.016" y2="533.082" gradientTransform="matrix(257.8131 0 0 -257.8131 96214.18 137459.64)"><stop offset="0" style="stop-color:#7a1318"/><stop offset=".5" style="stop-color:#be2528"/><stop offset="1" style="stop-color:#7a1218"/></linearGradient><path clip-path="url(#h)" fill="url(#i)" d="M-.744 0h46.532v47.936H-.744z"/><defs><path id="j" d="M.684 38.348c1.338 6.184 3.546 9.588 3.546 9.588 3.108-5.021 51.949-35.951 51.949-35.951l-5.506-5.023C12.932 21.677.684 38.348.684 38.348"/></defs><clipPath id="k"><use xlink:href="#j" overflow="visible"/></clipPath><linearGradient id="l" gradientUnits="userSpaceOnUse" x1="-373.432" y1="533.208" x2="-373.254" y2="533.208" gradientTransform="matrix(312.4643 0 0 -312.4643 116685 166635.781)"><stop offset="0" style="stop-color:#838382"/><stop offset=".5" style="stop-color:#bbbbb9"/><stop offset="1" style="stop-color:#848382"/></linearGradient><path clip-path="url(#k)" fill="url(#l)" d="M.684 6.961h55.495v40.975H.684z"/><defs><path id="m" d="M6.449 51.813c2.342 4.332 7.371 7.666 7.371 7.666 15.984-20.707 48.131-38.771 48.131-38.771-2.132-5.375-5.772-8.723-5.772-8.723-35.521 15.244-49.73 39.828-49.73 39.828"/></defs><clipPath id="n"><use xlink:href="#m" overflow="visible"/></clipPath><linearGradient id="o" gradientUnits="userSpaceOnUse" x1="-373.518" y1="533.332" x2="-373.34" y2="533.332" gradientTransform="matrix(312.5 0 0 -312.5 116730.75 166702)"><stop offset="0" style="stop-color:#7a1318"/><stop offset=".5" style="stop-color:#be2528"/><stop offset="1" style="stop-color:#7a1218"/></linearGradient><path clip-path="url(#n)" fill="url(#o)" d="M6.449 11.984H61.95v47.494H6.449z"/><path d="M97.312 12.726h-7.675v13.568h-3.87V12.726h-7.643V9.782h19.188v2.944zm24.605 13.568h-3.902V19.19h-12.093v7.104h-3.87V9.782h3.87v6.4h12.093v-6.4h3.902v16.512zm25.702 0h-17.188V9.782h17.027v2.816h-13.157v3.68h7.675v2.816h-7.675v4.096h13.318v3.104zm39.794-3.904c0 1.536-.296 2.571-.887 3.104-.592.533-1.672.8-3.241.8h-12.254c-1.57 0-2.65-.267-3.241-.8-.592-.533-.887-1.568-.887-3.104v-8.704c0-1.536.295-2.571.887-3.104.591-.533 1.671-.8 3.241-.8h12.254c1.569 0 2.649.267 3.241.8.591.533.887 1.568.887 3.104v8.704zm-3.87.8V12.726h-12.771V23.19h12.771zm31.57 3.104h-2.644l-12.223-10.208a11.742 11.742 0 0 1-1.387-1.344c.107 1.067.161 1.909.161 2.528v9.024h-3.482V9.782h2.645l11.706 9.728c.838.704 1.472 1.302 1.902 1.792-.107-1.536-.161-2.485-.161-2.848V9.782h3.482v16.512zm25.67 0h-17.188V9.782h17.027v2.816h-13.157v3.68h7.675v2.816h-7.675v4.096h13.318v3.104zM86.173 38.207h-3.118v5.512h-1.572v-5.512h-3.105v-1.196h7.795v1.196zm12.97 5.512H92.16v-6.708h6.917v1.144h-5.345v1.495h3.118v1.145h-3.118v1.664h5.411v1.26zm14.214-1.586c0 .624-.12 1.044-.36 1.261s-.679.325-1.316.325h-4.035c-.638 0-1.077-.108-1.317-.325s-.36-.637-.36-1.261v-3.536c0-.624.12-1.044.36-1.261s.679-.325 1.317-.325h4.035c.803 0 1.301.187 1.493.56.123.217.184.771.184 1.663l-1.572.247v-1.273h-4.245v4.251h4.245v-1.443l1.572.325v.792zm15.379 1.586h-1.584v-2.886h-4.914v2.886h-1.572v-6.708h1.572v2.6h4.914v-2.6h1.584v6.708zm15.459 0h-1.074l-4.965-4.147a4.788 4.788 0 0 1-.563-.546c.043.434.064.776.064 1.027v3.666h-1.414v-6.708h1.074l4.756 3.952c.34.286.598.528.773.728a22.776 22.776 0 0 1-.066-1.156v-3.523h1.414v6.707zm15.696-1.586c0 .624-.121 1.044-.361 1.261s-.678.325-1.316.325h-4.979c-.637 0-1.076-.108-1.316-.325s-.359-.637-.359-1.261v-3.536c0-.624.119-1.044.359-1.261s.68-.325 1.316-.325h4.979c.639 0 1.076.108 1.316.325s.361.637.361 1.261v3.536zm-1.573.325v-4.251h-5.188v4.251h5.188zm15.59 1.261h-6.643v-6.708h1.572v5.447h5.07v1.261zm14.555-1.586c0 .624-.119 1.044-.359 1.261s-.68.325-1.316.325h-4.979c-.639 0-1.076-.108-1.316-.325s-.361-.637-.361-1.261v-3.536c0-.624.121-1.044.361-1.261s.678-.325 1.316-.325h4.979c.637 0 1.076.108 1.316.325s.359.637.359 1.261v3.536zm-1.57.325v-4.251h-5.189v4.251h5.189zm16.82-.325c0 .624-.121 1.044-.361 1.261s-.678.325-1.316.325h-4.664c-.637 0-1.076-.108-1.316-.325s-.359-.637-.359-1.261v-3.536c0-.624.119-1.044.359-1.261s.68-.325 1.316-.325h4.664c.674 0 1.121.114 1.344.345.223.229.334.674.334 1.332l-1.533.273v-.754h-4.912v4.251h4.912v-1.495h-2.568v-1.145h4.102v2.315zm8.961 1.586h-1.572v-6.708h1.572v6.708zm14.502 0h-6.982v-6.708h6.916v1.144h-5.344v1.495h3.117v1.145h-3.117v1.664h5.41v1.26zm14.304-1.586c0 .624-.121 1.044-.365 1.261-.246.217-.686.325-1.324.325h-4.18c-.689 0-1.143-.121-1.361-.364-.219-.242-.328-.71-.328-1.403l1.389-.286v.793h4.781v-1.534h-4.217c-.639 0-1.078-.108-1.318-.325s-.359-.637-.359-1.261v-.741c0-.624.119-1.044.359-1.261s.68-.325 1.318-.325h3.838c.646 0 1.088.11 1.322.331.236.222.354.648.354 1.281l-1.389.323v-.767h-4.428v1.443h4.219c.639 0 1.078.108 1.324.325.244.216.365.637.365 1.261v.924z"/><path d="M100.711 56.461c0 .576-.111.964-.333 1.164s-.627.3-1.215.3h-4.595c-.589 0-.994-.1-1.215-.3s-.333-.588-.333-1.164v-3.264c0-.576.111-.965.333-1.164.222-.2.626-.301 1.215-.301h4.595c.588 0 .994.101 1.215.301.222.199.333.588.333 1.164v3.264zm-1.451.3v-3.924h-4.789v3.924h4.789zm11.911 1.164h-2.08l-2.515-2.34h-1.378v2.34h-1.427v-6.192h5.345c.935 0 1.403.4 1.403 1.2v1.452c0 .6-.242.972-.726 1.116-.186.056-.686.084-1.5.084l2.878 2.34zm-2.055-3.888v-.744c0-.208-.061-.344-.181-.408-.089-.056-.246-.084-.472-.084h-3.265v1.728h3.265c.226 0 .383-.027.472-.084.12-.064.181-.2.181-.408zm5.804 3.888h-1.451v-6.192h1.451v6.192zm10.46-1.464c0 .576-.111.964-.333 1.164s-.627.3-1.215.3h-4.305c-.589 0-.994-.1-1.215-.3s-.333-.588-.333-1.164v-3.264c0-.576.111-.965.333-1.164.222-.2.626-.301 1.215-.301h4.305c.621 0 1.034.106 1.239.318.206.212.309.622.309 1.23l-1.415.252v-.696h-4.535v3.924h4.535v-1.38h-2.37v-1.056h3.785v2.137zm4.524 1.464h-1.451v-6.192h1.451v6.192zm10.52 0h-.992l-4.582-3.828a4.45 4.45 0 0 1-.52-.504c.039.4.061.716.061.948v3.384h-1.307v-6.192h.992l4.389 3.648c.314.264.553.488.713.672a24.912 24.912 0 0 1-.061-1.068v-3.252h1.307v6.192zm15.418-1.464c0 .576-.109.964-.332 1.164s-.627.3-1.215.3h-4.596c-.588 0-.994-.1-1.215-.3-.223-.2-.334-.588-.334-1.164v-3.264c0-.576.111-.965.334-1.164.221-.2.627-.301 1.215-.301h4.596c.588 0 .992.101 1.215.301.223.199.332.588.332 1.164v3.264zm-1.451.3v-3.924h-4.789v3.924h4.789zm10.824-3.948h-4.861v1.632h2.625v1.129h-2.625v2.352h-1.451v-6.192h6.313v1.079zm13.81 5.112h-.992l-4.584-3.828a4.45 4.45 0 0 1-.52-.504c.041.4.061.716.061.948v3.384h-1.307v-6.192h.992l4.391 3.648c.314.264.551.488.713.672a21.772 21.772 0 0 1-.061-1.068v-3.252h1.307v6.192zm9.625 0h-6.445v-6.192h6.385v1.057h-4.934v1.38h2.879v1.056h-2.879v1.536h4.994v1.163zm11.815-6.193-2.406 6.192h-.979l-1.719-4.284-1.74 4.284h-1.004l-2.406-6.192h1.498l1.586 4.152 1.656-4.152h1.016l1.693 4.152 1.512-4.152h1.293zm13.193 6.193h-6.445v-6.192h6.385v1.057h-4.934v1.38h2.879v1.056h-2.879v1.536h4.994v1.163zm10.086 0h-2.08l-2.516-2.34h-1.379v2.34h-1.426v-6.192h5.344c.936 0 1.402.4 1.402 1.2v1.452c0 .6-.24.972-.725 1.116-.186.056-.686.084-1.5.084l2.88 2.34zm-2.056-3.888v-.744c0-.208-.061-.344-.182-.408-.088-.056-.246-.084-.471-.084h-3.266v1.728h3.266c.225 0 .383-.027.471-.084.121-.064.182-.2.182-.408zm11.669 3.888h-1.631l-.75-1.356h-3.955l-.725 1.356h-1.451l3.531-6.192h1.402l3.579 6.192zm-2.986-2.472-1.342-2.521-1.391 2.521h2.733z" fill="#B92328"/></svg>